<?xml version="1.0" encoding="UTF-8"?>
<svg id="Layer_2" data-name="Layer 2" xmlns="http://www.w3.org/2000/svg" viewBox="0 0 378.03 146.46">
  <defs>
    <style>
      .cls-1 {
        fill: #fff;
        stroke-width: 0px;
      }
    </style>
  </defs>
  <g id="Layer_1-2" data-name="Layer 1">
    <g>
      <path class="cls-1" d="M86.57,130.36c-10.22,10.22-22.27,15.7-35.17,15.94-13.39.49-25.31-4.87-36.02-15.58S-.56,107.96.05,94.7s5.48-24.7,14.73-33.95c9.37-9.37,20.57-14.48,32.61-15.33,12.53-.85,23.61,3.65,33.47,13.51l12.17,12.17-16.67,16.67,26.29.97v3.65c-.49,14.85-5.84,27.75-16.06,37.97ZM47.87,116.24c2.31.61,4.62.73,7.06.24,4.62-.73,8.4-2.8,11.68-6.08,5.48-5.48,8.15-11.56,8.03-18.74v-2.19s-26.77,26.77-26.77,26.77ZM51.52,76.81c-2.31-1.1-4.38-1.46-6.81-1.46-3.41.49-6.69,2.07-9.61,4.99s-4.62,6.33-5.35,10.71c-.49,2.43-.24,4.87.61,6.94l21.17-21.17Z"/>
      <path class="cls-1" d="M140.88,146.46h-37.86V0h37.86v146.46Z"/>
      <path class="cls-1" d="M182.18,146.46h-37.86V0h37.86v146.46Z"/>
      <path class="cls-1" d="M182.18,96.55c0-27.54,22.37-49.74,49.91-49.74s49.91,22.2,49.91,49.74-22.37,49.91-49.91,49.91-49.91-22.37-49.91-49.91ZM231.92,111.35c8.09,0,14.63-6.54,14.63-14.63s-6.54-14.63-14.63-14.63-14.46,6.54-14.46,14.63,6.54,14.63,14.46,14.63Z"/>
      <path class="cls-1" d="M343.61,146.46v-54.56c0-5.51-1.03-9.81-2.93-12.05-.52-.69-2.24-2.75-7.92-2.75-4.13,0-7.4,1.21-10.5,3.96-3.96,3.61-3.96,9.64-3.96,11.53v53.87h-34.42V0h34.42v49.22c6.02-3.27,12.74-4.99,19.62-4.99,11.7,0,21.51,3.79,28.91,11.19s11.19,17.9,11.19,31.15v59.89h-34.42Z"/>
    </g>
  </g>
</svg>