<?xml version="1.0" encoding="UTF-8"?>
<svg id="Layer_2" data-name="Layer 2" xmlns="http://www.w3.org/2000/svg" viewBox="0 0 207.65 204.37">
  <defs>
    <style>
      .cls-1 {
        fill: #fff;
        stroke-width: 0px;
      }
    </style>
  </defs>
  <g id="Layer_1-2" data-name="Layer 1">
    <path class="cls-1" d="M175.15,172.06c-20.68,20.68-45.06,31.76-71.15,32.25-27.08.98-51.21-9.85-72.88-31.51C9.45,151.13-1.14,126.76.1,99.92c1.23-26.84,11.08-49.98,29.79-68.69C48.85,12.27,71.49,1.93,95.87.21c25.36-1.72,47.76,7.39,67.71,27.33l24.62,24.62-33.73,33.73,53.18,1.97v7.39c-.99,30.04-11.82,56.14-32.5,76.82ZM104.24,63.73c-4.68-2.22-8.86-2.96-13.79-2.96-6.9.98-13.54,4.19-19.45,10.1-5.66,5.66-9.36,12.8-10.83,21.67-.98,4.92-.49,9.85,1.23,14.03l42.84-42.84ZM96.86,143.5c4.68,1.23,9.36,1.48,14.28.49,9.35-1.48,16.99-5.66,23.63-12.31,11.08-11.08,16.5-23.39,16.25-37.92v-4.43s-54.16,54.17-54.16,54.17Z"/>
  </g>
</svg>